<?xml version="1.0" encoding="UTF-8"?>
<svg width="410px" height="262px" viewBox="0 0 410 262" version="1.1" xmlns="http://www.w3.org/2000/svg" xmlns:xlink="http://www.w3.org/1999/xlink">
    <!-- Generator: Sketch 60.1 (88133) - https://sketch.com -->
    <title>undraw_web_shopping_dd4l</title>
    <desc>Created with Sketch.</desc>
    <g id="Page-1" stroke="none" stroke-width="1" fill="none" fill-rule="evenodd">
        <g id="HomeV2" transform="translate(-390.000000, -1621.000000)" fill-rule="nonzero">
            <g id="undraw_web_shopping_dd4l" transform="translate(0.000000, 1576.000000)">
                <g transform="translate(390.000000, 45.000000)">
                    <rect id="Rectangle" fill="#E6E6E6" x="0" y="0" width="410" height="262"></rect>
                    <rect id="Rectangle" fill="#FFFFFF" x="12" y="33" width="386" height="214"></rect>
                    <rect id="Rectangle" fill="#000000" x="0" y="0" width="410" height="17"></rect>
                    <circle id="Oval" fill="#FFFFFF" cx="13" cy="9" r="3"></circle>
                    <circle id="Oval" fill="#FFFFFF" cx="25" cy="9" r="3"></circle>
                    <circle id="Oval" fill="#FFFFFF" cx="37" cy="9" r="3"></circle>
                    <rect id="Rectangle" fill="#E6E6E6" x="59" y="51" width="76" height="82"></rect>
                    <rect id="Rectangle" fill="#E6E6E6" x="167" y="51" width="76" height="82"></rect>
                    <rect id="Rectangle" fill="#E6E6E6" x="275" y="51" width="76" height="82"></rect>
                    <rect id="Rectangle" fill="#E6E6E6" x="59" y="147" width="76" height="82"></rect>
                    <rect id="Rectangle" fill="#E6E6E6" x="167" y="147" width="76" height="82"></rect>
                    <rect id="Rectangle" fill="#E6E6E6" x="275" y="147" width="76" height="82"></rect>
                    <path d="M185.639688,168.484362 L199.308659,163 L200.898071,190.421805 C200.898071,190.421805 203.759015,198.809653 202.805384,202.035746 C202.805384,202.035746 203.441147,207.520108 201.851734,207.842716 C200.262321,208.165324 195.811965,208.810547 195.494083,208.487939 C195.176202,208.165331 195.176202,207.1975 195.176202,207.1975 C195.176202,207.1975 191.99737,209.455763 191.679489,212.03664 C191.679489,212.03664 178.328419,216.230564 178.010519,212.359248 C177.692619,208.487932 184.686057,205.261839 184.686057,205.261839 L190.090064,196.873998 L185.639688,168.484362 Z" id="Path" fill="#FFFFFF"></path>
                    <path d="M214.639684,168.484362 L228.308658,163 L229.898071,190.421805 C229.898071,190.421805 232.759016,198.809653 231.805384,202.035746 C231.805384,202.035746 232.441153,207.520108 230.85174,207.842716 C229.262327,208.165324 224.811963,208.810547 224.494081,208.487939 C224.1762,208.165331 224.1762,207.1975 224.1762,207.1975 C224.1762,207.1975 220.997374,209.455763 220.679492,212.03664 C220.679492,212.03664 207.328412,216.230564 207.010518,212.359248 C206.692624,208.487932 213.686058,205.261839 213.686058,205.261839 L219.09006,196.873998 L214.639684,168.484362 Z" id="Path" fill="#FFFFFF"></path>
                    <path d="M216.616576,63.0932691 C216.616576,63.0932691 213.659076,71.2826643 217.08568,74.9758162 L214.229159,84.7042819 C214.229159,84.7042819 224.378827,114.880857 221.478924,119.095997 C221.478924,119.095997 210.652612,124.46072 189,117.180024 L197.796373,83.3631011 L196.539749,69.0890987 L198.279691,62.3831945 L202.146229,62 C202.146229,62 199.826306,70.6218768 204.079497,71.9630576 C208.332689,73.3042385 212.482005,62.2152142 212.482005,62.2152142 L216.616576,63.0932691 Z" id="Path" fill="#1500FF"></path>
                    <path d="M80,116.453782 L83.7411765,117.966389 L101.596772,94.7731058 L107.208531,122 L110.949701,121.32773 C113.349608,97.8545401 115.306546,73.9120837 112.905312,62.5882327 L99.0459701,62 L92.7539979,81.8319347 L89.6930417,95.2773271 L80,116.453782 Z" id="Path" fill="#FFFFFF"></path>
                    <path d="M305.734166,62 C305.734166,62 300.766246,68.9916842 301.008586,71.812879 C301.250927,74.6340739 304.401307,120.632012 304.401307,120.632012 L311.792598,121 L309.611573,87.8815237 L311.4291,78.9272637 L315.912345,120.632044 L325,120.877369 L316.881694,66.7838085 L315.306501,62 L305.734166,62 Z" id="Path" fill="#FFFFFF"></path>
                    <path d="M334.10028,175.339493 C332.762962,173.721878 330.464229,172.847294 328.256476,172.374636 C328.322758,172.17235 321.542729,170.760781 321.429349,171.051682 L318.874081,169 L311.024316,173.109037 L306.61276,170.081962 L304.563538,170.815031 C304.646999,170.450791 298.202086,171.575716 298.202086,171.575716 C296.970985,171.62033 295.398458,171.697997 293.638315,171.834477 C287.474166,172.312425 287,188.403701 287,188.403701 C289.836164,187.234241 292.860163,186.596052 295.92353,186.520468 L297.589589,205.769512 C306.158776,205.028635 315.146008,205.890798 324.458858,208 L328.827008,192.869362 L339,188.881636 C339,188.881636 337.261354,179.163167 334.10028,175.339493 Z" id="Path" fill="#1500FF"></path>
                    <path d="M114.948337,166.214299 C113.842481,164.883795 111.9416,164.164442 110.115957,163.775674 C110.17077,163.60929 104.564203,162.448262 104.470448,162.687531 L102.357441,161 L95.8662751,164.379732 L92.2182262,161.889929 L90.5236952,162.492886 C90.5927346,162.193297 85.2632456,163.118556 85.2632456,163.118556 C84.2452249,163.155241 82.9448658,163.219136 81.4893648,163.331384 C76.3920843,163.724497 76,176.959741 76,176.959741 C78.3452897,175.997848 80.8459038,175.472933 83.3790719,175.410765 L84.7568401,214.165407 C91.8429005,213.556025 99.2746466,214.26516 106.975653,216 L110.587723,180.632801 L119,177.352854 C119,177.352854 117.562305,169.359311 114.948337,166.214299 Z" id="Path" fill="#FFFFFF"></path>
                </g>
            </g>
        </g>
    </g>
</svg>