<?xml version="1.0" encoding="UTF-8"?>
<svg width="241px" height="340px" viewBox="0 0 241 340" version="1.1" xmlns="http://www.w3.org/2000/svg" xmlns:xlink="http://www.w3.org/1999/xlink">
    <!-- Generator: Sketch 60.1 (88133) - https://sketch.com -->
    <title>undraw_Mobile_pay_re_sjb8</title>
    <desc>Created with Sketch.</desc>
    <g id="Page-1" stroke="none" stroke-width="1" fill="none" fill-rule="evenodd">
        <g id="HomeV2" transform="translate(-555.000000, -2292.000000)" fill-rule="nonzero">
            <g id="undraw_Mobile_pay_re_sjb8" transform="translate(0.000000, 2280.000000)">
                <g transform="translate(555.000000, 12.000000)">
                    <path d="M241,114.778837 L238.344373,114.778837 L238.344373,42.0775713 C238.344377,18.8387921 219.492856,0 196.238307,0 L42.1062315,0 C30.9390044,0 20.229142,4.43307734 12.3326918,12.3241161 C4.43624165,20.2151549 0,30.9177226 0,42.0773764 L0,440.922444 C0,452.082095 4.43613349,462.784681 12.3325451,470.675755 C20.2289568,478.566828 30.9387971,483 42.1060215,483 L196.238119,483 C207.405348,483 218.115212,478.566918 226.011662,470.675876 C233.908112,462.784835 238.344313,452.082264 238.344351,440.922609 L238.344351,166.528851 L241,166.528851 L241,114.778837 Z" id="Path" fill="#000000"></path>
                    <path d="M196.66579,12 L176.616971,12 C178.489287,16.6022545 177.953737,21.8370042 175.18853,25.9623328 C172.423324,30.0876614 167.79132,32.5622295 162.833866,32.5625991 L74.8429847,32.5625991 C69.8855328,32.5622197 65.2535338,30.0876519 62.4883231,25.9623285 C59.7231124,21.837005 59.1875477,16.602261 61.0598426,12 L42.3342021,12 C25.0288312,12 11,26.065293 11,43.4157616 L11,441.584178 C11,449.916173 14.301266,457.906911 20.1775622,463.798521 C26.0538584,469.690131 34.023827,473 42.3341648,473 L196.66579,473 C213.971161,473 228,458.934707 228,441.584238 L228,43.4158216 C228,35.0838271 224.698734,27.0930888 218.822438,21.2014789 C212.946142,15.3098691 204.976173,12 196.665835,12 L196.66579,12 Z M193.297501,196.712876 C193.284407,201.201558 189.658322,204.837093 185.181307,204.850221 L145.953032,204.850221 C141.476015,204.837097 137.849928,201.20156 137.836838,196.712876 L137.836838,194.67854 C137.849936,190.18986 141.476018,186.554328 145.953032,186.541195 L185.181292,186.541195 C189.658299,186.554344 193.284372,190.189866 193.297501,194.67854 L193.297501,196.712876 Z M197.693775,160.772942 C197.680677,165.261623 194.054595,168.897155 189.577581,168.910287 L48.8969048,168.910287 C44.419888,168.897163 40.7938009,165.261626 40.780711,160.772942 L40.780711,158.738606 C40.7938132,154.249927 44.4198931,150.614398 48.8969048,150.601261 L189.577581,150.601261 C194.054586,150.614414 197.680657,154.249934 197.693775,158.738606 L197.693775,160.772942 Z M197.693775,124.833008 C197.680677,129.321689 194.054595,132.957221 189.577581,132.970353 L48.8969048,132.970353 C44.419888,132.957229 40.7938009,129.321692 40.780711,124.833008 L40.780711,122.798672 C40.7938132,118.309993 44.4198931,114.674464 48.8969048,114.661327 L189.577581,114.661327 C194.054586,114.67448 197.680657,118.31 197.693775,122.798672 L197.693775,124.833008 Z M197.693775,88.893074 C197.680681,93.3817563 194.054597,97.0172905 189.577581,97.0304187 L48.8969048,97.0304187 C44.419888,97.0172946 40.7938009,93.381758 40.780711,88.893074 L40.780711,86.8587379 C40.7938091,82.3700573 44.4198914,78.7345255 48.8969048,78.7213932 L189.577581,78.7213932 C194.054586,78.7345459 197.680657,82.3700658 197.693775,86.8587379 L197.693775,88.893074 Z" id="Shape" fill="#FFFFFF"></path>
                    <circle id="Oval" fill="#FFFFFF" cx="52.5" cy="159.5" r="4.5"></circle>
                    <circle id="Oval" fill="#FFFFFF" cx="67.5" cy="159.5" r="4.5"></circle>
                    <circle id="Oval" fill="#FFFFFF" cx="83.5" cy="159.5" r="4.5"></circle>
                    <circle id="Oval" fill="#FFFFFF" cx="98.5" cy="159.5" r="4.5"></circle>
                    <circle id="Oval" fill="#FFFFFF" cx="149.5" cy="195.5" r="4.5"></circle>
                    <circle id="Oval" fill="#FFFFFF" cx="165.5" cy="195.5" r="4.5"></circle>
                    <circle id="Oval" fill="#FFFFFF" cx="180.5" cy="195.5" r="4.5"></circle>
                    <path d="M198.77763,257 L38.222355,257 C30.3675764,257 24,263.38721 24,271.266255 L24,349.733685 C24,357.612739 30.3675525,364 38.2223401,364 L198.77763,364 C206.632413,364 213,357.612779 213,349.73373 L213,271.266293 C213,263.387257 206.632475,257 198.777705,257 L198.77763,257 Z M34.2499761,266.731814 C34.5670376,266.674309 42.0851252,265.390951 48.3105244,269.14846 C54.5355272,272.905263 56.9273104,280.169911 57.0258574,280.477059 L57.2775276,281.260398 L56.4696908,281.404151 C55.317212,281.584629 54.1519734,281.670476 52.9855741,281.660838 C49.2853152,281.731794 45.6334972,280.808546 42.4087984,278.98683 C36.1837957,275.23074 33.7923639,267.966054 33.6937871,267.658891 L33.4421019,266.87556 L34.2499761,266.731814 Z M69.1022955,339.58389 L40.4659214,339.58389 C36.1166797,339.58389 32.5909227,336.047241 32.5909227,331.684563 C32.5909227,327.321885 36.1166797,323.785236 40.4659214,323.785236 L69.1022955,323.785236 C73.4515372,323.785236 76.9772943,327.321885 76.9772943,331.684563 C76.9772943,336.047241 73.4515372,339.58389 69.1022955,339.58389 L69.1022955,339.58389 Z M199.397744,338.147664 C199.383857,342.90118 195.545683,346.751201 190.806807,346.765119 L169.329552,346.765119 C164.590697,346.751181 160.752548,342.901174 160.738652,338.147679 L160.738652,325.221462 C160.752515,320.467956 164.590686,316.617935 169.329552,316.604037 L190.806807,316.604037 C195.545679,316.617935 199.383852,320.467965 199.397744,325.221477 L199.397744,338.147664 Z" id="Shape" fill="#1500FF"></path>
                    <path d="M176.72499,335 L168.27501,335 C167.018557,335 166,336.119288 166,337.5 C166,338.880712 167.018557,340 168.27501,340 L176.72499,340 C177.981443,340 179,338.880712 179,337.5 C179,336.119288 177.981443,335 176.72499,335 L176.72499,335 Z" id="Path" fill="#3F3D56"></path>
                    <path d="M192.725021,335 L184.275009,335 C183.018556,335 182,336.119288 182,337.5 C182,338.880712 183.018556,340 184.275009,340 L192.724991,340 C193.981444,340 195,338.880712 195,337.5 C195,336.119288 193.981444,335 192.724991,335 L192.725021,335 Z" id="Path" fill="#3F3D56"></path>
                    <path d="M176.724991,329 L168.275009,329 C167.018556,329 166,330.119288 166,331.5 C166,332.880712 167.018556,334 168.275009,334 L176.724991,334 C177.981444,334 179,332.880712 179,331.5 C179,330.119288 177.981444,329 176.724991,329 Z" id="Path" fill="#3F3D56"></path>
                    <path d="M192.725028,329 L184.275009,329 C183.018556,329 182,330.119288 182,331.5 C182,332.880712 183.018556,334 184.275009,334 L192.724991,334 C193.981444,334 195,332.880712 195,331.5 C195,330.119288 193.981444,329 192.724991,329 L192.725028,329 Z" id="Path" fill="#3F3D56"></path>
                    <path d="M176.724991,322 L168.275009,322 C167.018556,322 166,323.119288 166,324.5 C166,325.880712 167.018556,327 168.275009,327 L176.724991,327 C177.981444,327 179,325.880712 179,324.5 C179,323.119288 177.981444,322 176.724991,322 Z" id="Path" fill="#3F3D56"></path>
                    <path d="M192.725028,322 L184.275009,322 C183.018556,322 182,323.119288 182,324.5 C182,325.880712 183.018556,327 184.275009,327 L192.724991,327 C193.981444,327 195,325.880712 195,324.5 C195,323.119288 193.981444,322 192.724991,322 L192.725028,322 Z" id="Path" fill="#3F3D56"></path>
                </g>
            </g>
        </g>
    </g>
</svg>