<?xml version="1.0" encoding="UTF-8"?>
<svg width="419px" height="286px" viewBox="0 0 419 286" version="1.1" xmlns="http://www.w3.org/2000/svg" xmlns:xlink="http://www.w3.org/1999/xlink">
    <!-- Generator: Sketch 60.1 (88133) - https://sketch.com -->
    <title>undraw_website_setup_5hr2</title>
    <desc>Created with Sketch.</desc>
    <defs>
        <linearGradient x1="49.9993122%" y1="100%" x2="49.9993122%" y2="0%" id="linearGradient-1">
            <stop stop-color="#000000" stop-opacity="0.960527753" offset="0%"></stop>
            <stop stop-color="#808080" stop-opacity="0.12" offset="54%"></stop>
            <stop stop-color="#808080" stop-opacity="0.1" offset="100%"></stop>
        </linearGradient>
    </defs>
    <g id="Page-1" stroke="none" stroke-width="1" fill="none" fill-rule="evenodd">
        <g id="HomeV2" transform="translate(-1051.000000, -1961.000000)" fill-rule="nonzero">
            <g id="undraw_website_setup_5hr2" transform="translate(960.000000, 1928.000000)">
                <g transform="translate(91.000000, 33.000000)">
                    <polygon id="Path" fill="url(#linearGradient-1)" points="0 0 0 14.4328352 0 286 419 286 419 14.4328352 419 0"></polygon>
                    <rect id="Rectangle" fill="#FFFFFF" x="6" y="13" width="409" height="267"></rect>
                    <rect id="Rectangle" fill="#000000" x="6" y="0" width="409" height="20"></rect>
                    <circle id="Oval" fill="#FF5252" cx="21" cy="10" r="5"></circle>
                    <circle id="Oval" fill="#FFFF00" cx="34" cy="10" r="5"></circle>
                    <circle id="Oval" fill="#69F0AE" cx="48" cy="10" r="5"></circle>
                    <rect id="Rectangle" fill="#1500FF" x="22" y="52" width="152" height="6"></rect>
                    <rect id="Rectangle" fill="#1500FF" x="22" y="64" width="152" height="6"></rect>
                    <rect id="Rectangle" fill="#1500FF" x="22" y="77" width="152" height="6"></rect>
                    <rect id="Rectangle" fill="#1500FF" x="74" y="90" width="100" height="6"></rect>
                    <rect id="Rectangle" fill="#1500FF" x="22" y="102" width="80" height="6"></rect>
                    <rect id="Rectangle" fill="#1500FF" x="65" y="115" width="62" height="6"></rect>
                    <rect id="Rectangle" fill="#1500FF" opacity="0.945265997" x="194" y="96" width="179" height="103"></rect>
                    <rect id="Rectangle" fill="#EEEEEE" x="215" y="111" width="179" height="103"></rect>
                    <path d="M315,209 L215,209 L215,190.000059 C239.431034,178.486523 277.022989,172.019937 315,209 Z" id="Path" fill="#1500FF"></path>
                    <g id="Group" opacity="0.1" transform="translate(268.000000, 180.000000)" fill="#000000">
                        <path d="M125.907523,25.8042 L125.907523,28.5244 L0.485504587,28.5244 L0.485504587,27.9444 C0.485504587,27.9444 62.2023853,-32.3582 125.907523,25.8042 Z" id="Path"></path>
                    </g>
                    <path d="M395,206.282394 L395,209 L270,209 L270,208.420553 C270,208.420553 331.509217,148.175448 395,206.282394 Z" id="Path" fill="#1500FF"></path>
                    <circle id="Oval" fill="#1500FF" cx="236" cy="124" r="9"></circle>
                    <path d="M314.544928,117.281563 C313.485667,117.281563 312.304851,117.281563 311.500276,117.35653 C311.140573,117.379827 310.785679,117.464775 310.446803,117.608692 L305,119.912229 C309.399118,120.041717 313.98925,120.000826 318.498346,119.959935 L343.781698,119.728218 C346.363286,119.728218 349.072216,119.673697 351.21968,119.496502 C352.66097,119.373828 353.720232,119.196633 355.051544,119.060329 C359.838479,118.556004 366.813396,118.651417 373.047409,118.678678 C379.281422,118.705939 386.806229,118.515113 389,117.779072 L375.61742,117.779072 C374.17613,117.779072 372.659592,117.779072 371.386163,117.69729 C369.898567,117.595062 368.989802,117.404236 367.681643,117.267932 C365.516814,117.049846 362.530044,117.022585 359.751654,117.008955 C344.499449,116.933988 329.438258,117.35653 314.544928,117.281563 Z" id="Path" fill="#F4F4F4"></path>
                    <path d="M330.025429,128.145 C329.796567,128.145 329.544819,128.145 329.373172,128.145 C329.295049,128.151851 329.217931,128.178807 329.14431,128.225 L328,128.955 C328.944056,128.955 329.922441,128.955 330.889383,128.955 L336.301971,128.885 C336.874126,128.885 337.446281,128.885 337.892562,128.815 C338.201526,128.815 338.430388,128.715 338.710744,128.675 C339.734901,128.515 341.228226,128.545 342.567069,128.555 C343.713991,128.62236 344.862142,128.525368 346,128.265 L343.139224,128.265 C342.830261,128.265 342.504132,128.265 342.235219,128.265 C341.966306,128.265 341.72028,128.175 341.439924,128.125 C340.976478,128.055 340.335664,128.045 339.723458,128.045 C336.462174,128.045 333.235219,128.175 330.025429,128.145 Z" id="Path" fill="#F4F4F4"></path>
                    <path d="M291.025429,144.145 C290.796567,144.145 290.544819,144.145 290.373172,144.145 C290.295049,144.151851 290.217931,144.178807 290.14431,144.225 L289,144.955 C289.944056,144.955 290.922441,144.955 291.889383,144.955 L297.301971,144.885 C297.874126,144.885 298.446281,144.885 298.892562,144.815 C299.201526,144.815 299.430388,144.715 299.710744,144.675 C300.734901,144.515 302.228226,144.545 303.567069,144.555 C304.713991,144.62236 305.862142,144.525368 307,144.265 L304.139224,144.265 C303.830261,144.265 303.504132,144.265 303.235219,144.265 C302.966306,144.265 302.72028,144.175 302.439924,144.125 C301.976478,144.055 301.335664,144.045 300.723458,144.045 C297.462174,144.045 294.235219,144.175 291.025429,144.145 Z" id="Path" fill="#F4F4F4"></path>
                    <path d="M269.830426,204 L265.15213,204 C265.15213,204 263.690162,156.621446 269.830426,142 L271,142 C271,142 266.906491,195.606207 269.830426,204 Z" id="Path" fill="#1500FF"></path>
                    <path d="M266.012598,138.879276 C266.012598,138.879276 262.513743,148.655162 264.128599,153 C264.128599,153 266.550884,144.038771 269.374018,142.68101 C272.197153,141.323248 275.157723,153 275.157723,153 C275.157723,153 276.772579,145.668086 273.812009,139.711267 C273.812009,139.711267 279.733148,142.969895 282.693717,149.2156 C282.693717,149.2156 283.232003,145.171203 276.234293,136.72419 C276.234293,136.72419 282.424575,138.353505 286.461715,142.155238 C286.461715,142.155238 287.807428,139.168162 279.464005,134.280219 C279.464005,134.280219 280.540576,130.750038 287,132.379352 C287,132.379352 287,127.757184 276.772579,128.577619 C276.772579,128.577619 276.772579,125.590543 283.501145,126.133648 C283.501145,126.133648 283.501145,122.331914 275.696008,123.689676 C275.696008,123.689676 277.310864,121.245705 278.387435,120.7026 C277.041046,120.576998 275.696831,120.964498 274.619437,121.788809 C274.619437,121.788809 274.88858,116.900867 270.85144,115 L270.313154,121.788809 C270.313154,121.788809 265.789267,116.409761 266.8143,117.443971 C267.083442,117.715524 267.89087,120.974152 267.621728,122.603467 C267.621728,122.603467 263.040576,118.801733 257.394306,122.875019 C257.394306,122.875019 264.392016,123.418124 265.468586,125.862095 C265.468586,125.862095 259.547448,124.775886 258.201734,125.590543 C258.201734,125.590543 262.782886,127.219857 262.508017,128.306067 C262.508017,128.306067 254.433737,128.306067 253.345713,131.293143 C253.345713,131.293143 261.689136,132.379352 262.227421,133.194009 C262.227421,133.194009 252.538285,140.254371 252,142.155238 C252,142.155238 261.958279,136.181086 263.573135,136.181086 C265.187991,136.181086 256.306283,144.847651 256.844568,147.043181 C256.867474,147.025848 264.157232,138.336172 266.012598,138.879276 Z" id="Path" fill="#1500FF"></path>
                    <path d="M322.781761,202 L325.897949,202 C325.897949,202 326.87515,166.084043 322.781761,155 L322,155 C322,155 324.736165,195.626247 322.781761,202 Z" id="Path" fill="#1500FF"></path>
                    <path d="M325.220863,152.225274 C325.220863,152.225274 327.927238,159.687363 326.675467,163 C326.675467,163 324.803606,156.161194 322.618802,155.128159 C320.433999,154.095124 318.144881,163 318.144881,163 C318.144881,163 316.898905,157.407761 319.188023,152.848557 C316.259098,154.575043 313.878788,157.089484 312.32067,160.102886 C312.32067,160.102886 311.903413,156.992239 317.316162,150.568955 C317.316162,150.568955 312.529298,151.809751 309.411462,154.712637 C309.411462,154.712637 308.368319,152.433035 314.824211,148.704876 C314.824211,148.704876 313.989697,146.009751 309,147.256318 C309,147.256318 309,143.73592 316.904701,144.370746 C316.904701,144.370746 316.904701,142.091144 311.688989,142.506667 C311.688989,142.506667 311.688989,139.621095 317.721829,140.642587 C317.721829,140.642587 316.475853,138.778507 315.641339,138.362985 C316.677361,138.271736 317.710372,138.568006 318.538957,139.19403 C318.538957,139.19403 318.330328,135.465871 321.436574,134 L321.853831,139.19403 C321.853831,139.19403 325.330972,135.090746 324.560206,135.881393 C324.061798,137.131112 323.848033,138.475388 323.934321,139.817313 C323.934321,139.817313 327.469414,136.931741 331.839021,140.025075 C331.839021,140.025075 326.426272,140.440597 325.597553,142.304677 C325.597553,142.304677 330.175789,141.473632 331.213136,142.096915 C331.213136,142.096915 327.678042,143.337711 327.886671,144.168756 C327.886671,144.168756 334.128139,144.168756 334.962653,146.448358 C334.962653,146.448358 328.512556,147.279403 328.095299,147.896915 C328.095299,147.896915 335.588538,153.287164 336,154.735721 C336,154.735721 328.303928,150.176517 327.052157,150.176517 C325.800386,150.176517 332.66774,156.807562 332.267869,158.463881 C332.296845,158.440796 326.681262,151.821294 325.220863,152.225274 Z" id="Path" fill="#1500FF"></path>
                    <path d="M362.584855,195 L364.924273,195 C364.924273,195 365.653699,172.839945 362.584855,166 L362,166 C362,166 364.043706,191.087392 362.584855,195 Z" id="Path" fill="#1500FF"></path>
                    <path d="M364.209415,164.317919 C364.209415,164.317919 365.910003,168.942197 365.12738,171 C365.12738,171 363.950502,166.757225 362.573555,166.115607 C361.196608,165.473988 359.760817,171 359.760817,171 C359.760817,171 358.978193,167.531792 360.413984,164.699422 C358.572324,165.769551 357.075293,167.328266 356.094843,169.196532 C356.094843,169.196532 355.835929,167.265896 359.237106,163.283237 C357.411796,163.782271 355.716377,164.659338 354.264798,165.855491 C354.264798,165.855491 353.61163,164.439306 357.665974,162.127168 C357.665974,162.127168 357.142264,160.456647 354,161.225434 C354,161.225434 354,159.040462 358.972309,159.427746 C358.972309,159.427746 358.972309,158.011561 355.700588,158.271676 C355.700588,158.271676 355.700588,156.473988 359.496019,157.115607 C359.145638,156.574073 358.703869,156.095155 358.189685,155.699422 C358.84369,155.640464 359.496488,155.823975 360.01973,156.213873 C360.01973,156.213873 359.890273,153.901734 361.849775,153 L362.108688,156.213873 C362.108688,156.213873 364.30945,153.67052 363.809277,154.156069 C363.49587,154.930535 363.361218,155.76364 363.415022,156.595376 C364.909955,155.524956 366.951126,155.577159 368.387331,156.722543 C368.387331,156.722543 364.986154,156.976879 364.462444,158.138728 C364.462444,158.138728 367.33991,157.624277 367.993077,158.011561 C367.993077,158.011561 365.768778,158.780347 365.898235,159.294798 C365.898235,159.294798 369.823122,159.294798 370.346833,160.710983 C370.346833,160.710983 366.292489,161.225434 366.027691,161.612717 C366.027691,161.612717 370.735202,164.953757 371,165.855491 C371,165.855491 366.157148,163.028902 365.374524,163.028902 C364.5919,163.028902 368.905157,167.144509 368.646244,168.16763 C368.658013,168.17341 365.121495,164.057803 364.209415,164.317919 Z" id="Path" fill="#1500FF"></path>
                    <path d="M280,172.501077 C280.146618,172.597243 280.306934,172.597243 280.453552,172.501077 C280.631681,172.402039 280.821871,172.402039 281,172.501077" id="Path" fill="#000000" opacity="0.1"></path>
                    <polygon id="Path" fill="#F0E4E4" points="279 179.47 279.537037 179.42 280 179.58 279.837963 179.58"></polygon>
                    <polygon id="Path" fill="#F0E4E4" points="284 176.45 284.537037 176.45 285 176.55 284.837963 176.55"></polygon>
                    <polygon id="Path" fill="#F0E4E4" points="284 176.45 284.537037 176.45 285 176.55 284.837963 176.55"></polygon>
                    <polygon id="Path" fill="#F0E4E4" points="284 176.45 284.537037 176.45 285 176.55 284.837963 176.55"></polygon>
                    <polygon id="Path" fill="#F0E4E4" points="283 184.45 283.537037 184.45 284 184.55 283.837963 184.55"></polygon>
                    <polygon id="Path" fill="#F0E4E4" points="283 184.45 283.537037 184.45 284 184.55 283.837963 184.55"></polygon>
                    <polygon id="Path" fill="#F0E4E4" points="283 184.45 283.537037 184.45 284 184.55 283.837963 184.55"></polygon>
                </g>
            </g>
        </g>
    </g>
</svg>